<svg xmlns="http://www.w3.org/2000/svg" viewBox="0 0 48 48">
  <rect width="48" height="48" rx="11" fill="#2b1c12"/>
  <path d="M13 15h14a6 6 0 0 1 6 6c0 8-5 12-10 12s-10-4-10-12a6 6 0 0 1 6-6z" fill="#fff3dd" stroke="#4a3020" stroke-width="2"/>
  <path d="M31 18c3.6 0 6 2 6 4.6 0 2.9-2.6 4.4-5.5 4.4" fill="none" stroke="#4a3020" stroke-width="2" stroke-linecap="round"/>
  <path d="M15.5 22.5c2.4 5.6 10.6 5.6 13 0" fill="none" stroke="#d98e32" stroke-width="3.4" stroke-linecap="round"/>
  <path d="M18 10.5c0-2.4 2.4-2.4 2.4-4.8M24 10.5c0-2.4 2.4-2.4 2.4-4.8" fill="none" stroke="#d9bda0" stroke-width="1.9" stroke-linecap="round"/>
</svg>
